<svg width="319" height="115" viewBox="0 0 319 115" fill="none" xmlns="http://www.w3.org/2000/svg">
<path d="M58.0001 44.3001C62.7498 44.3001 66.6001 40.4497 66.6001 35.7001C66.6001 30.9505 62.7498 27.1001 58.0001 27.1001C53.2505 27.1001 49.4001 30.9505 49.4001 35.7001C49.4001 40.4497 53.2505 44.3001 58.0001 44.3001Z" fill="#FFFEFF"/>
<path d="M0.800049 22.7999V48.6999C0.800049 51.9999 4.20005 54.0999 7.10005 52.7999L36.5 39.3999C38.1 38.6999 39.1 37.0999 39.1 35.2999C39.1 33.4999 38.0001 31.8999 36.4001 31.1999L7.10005 18.5999C4.10005 17.3999 0.800049 19.4999 0.800049 22.7999Z" fill="url(#paint0_linear_2_5)"/>
<path d="M114.5 48.6999V22.7999C114.5 19.4999 111.1 17.3999 108.2 18.6999L78.8 32.0999C77.2 32.7999 76.2 34.3999 76.2 36.1999C76.2 37.9999 77.3 39.5999 78.9 40.2999L108.3 52.8999C111.2 54.0999 114.5 51.8999 114.5 48.6999Z" fill="url(#paint1_linear_2_5)"/>
<path d="M307.6 112.2C313.399 112.2 318.1 107.499 318.1 101.7C318.1 95.9012 313.399 91.2002 307.6 91.2002C301.801 91.2002 297.1 95.9012 297.1 101.7C297.1 107.499 301.801 112.2 307.6 112.2Z" fill="#FEFF3D"/>
<path d="M160.5 46.2001C154.9 46.2001 150.2 47.4001 146.6 49.9001C144.3 51.4001 141.2 49.7001 141.2 47.0001V25.5001C141.2 25.4001 141.2 25.3001 141.2 25.1001V21.2001C141.2 19.5001 139.8 18.1001 138.1 18.1001H127.7C126 18.1001 124.6 19.5001 124.6 21.2001V109C124.6 109.2 124.6 109.4 124.7 109.6C124.8 111.4 126.3 112.8 128.2 112.8H137.9C139.8 112.8 141.4 111.2 141.4 109.3V77.8001C141.4 72.4001 142.7 68.4001 145.3 65.7001C147.9 63.0001 151.3 61.7001 155.7 61.7001C159.6 61.7001 162.7 62.8001 165 65.1001C167.3 67.4001 168.5 70.7001 168.5 75.0001V109.2C168.5 111.1 170.1 112.7 172 112.7H181.7C183.6 112.7 185.2 111.1 185.2 109.2V73.0001C185.2 64.6001 182.9 58.0001 178.3 53.3001C173.5 48.5001 167.6 46.2001 160.5 46.2001Z" fill="white"/>
<path d="M258 48.0003H245.7C244.5 48.0003 243.5 49.0003 243.5 50.2003V50.3003C243.5 52.2003 241.3 53.2003 239.9 52.0003C235.3 48.2003 229.5 46.3003 222.4 46.3003C213.8 46.3003 206.3 49.6003 200.2 56.2003C194 62.8003 190.9 70.9003 190.9 80.5003C190.9 90.1003 194 98.2003 200.2 104.8C206.4 111.4 213.8 114.7 222.4 114.7C229.5 114.7 235.3 112.8 239.9 109C241.4 107.8 243.5 108.8 243.5 110.7V110.8C243.5 112 244.5 113 245.7 113H258C259.2 113 260.2 112 260.2 110.8V50.2003C260.2 49.0003 259.2 48.0003 258 48.0003ZM238.3 93.6003C234.9 97.0003 230.6 98.7003 225.4 98.7003C220.2 98.7003 215.9 97.0003 212.6 93.6003C209.2 90.2003 207.5 85.8003 207.5 80.4003C207.5 75.0003 209.2 70.7003 212.6 67.2003C216 63.8003 220.3 62.1003 225.4 62.1003C230.6 62.1003 234.9 63.8003 238.3 67.2003C241.7 70.6003 243.4 75.0003 243.4 80.4003C243.5 85.8003 241.8 90.1003 238.3 93.6003Z" fill="white"/>
<path d="M284.7 18.2002H274.3C272.6 18.2002 271.2 19.6002 271.2 21.3002V109.7C271.2 111.4 272.6 112.8 274.3 112.8H284.7C286.4 112.8 287.8 111.4 287.8 109.7V21.3002C287.8 19.6002 286.4 18.2002 284.7 18.2002Z" fill="white"/>
<path d="M71.4 18.0001C74.1 18.0001 75.8 15.8001 75 13.2001C72.8 5.6001 66 0.100098 57.9 0.100098C49.8 0.100098 43 5.6001 40.8 13.2001C40 15.8001 41.7 18.0001 44.4 18.0001C51.3 18.0001 64.6 18.0001 71.4 18.0001Z" fill="#FEFF3D"/>
<path d="M38.2001 58.1002L29.4001 106C28.7001 109.6 31.5001 112.9 35.1001 112.9H80.8001C84.5001 112.9 87.2001 109.6 86.5001 106L77.4001 58.0002C76.9001 55.2002 74.5001 53.2002 71.7001 53.2002L43.8001 53.3002C41.1001 53.3002 38.7001 55.3002 38.2001 58.1002Z" fill="#FEFF3D"/>
<defs>
<linearGradient id="paint0_linear_2_5" x1="0.800049" y1="35.7242" x2="39.1942" y2="35.7242" gradientUnits="userSpaceOnUse">
<stop stop-color="white" stop-opacity="0"/>
<stop offset="1" stop-color="white"/>
</linearGradient>
<linearGradient id="paint1_linear_2_5" x1="114.5" y1="35.7711" x2="76.1055" y2="35.7711" gradientUnits="userSpaceOnUse">
<stop stop-color="white" stop-opacity="0"/>
<stop offset="1" stop-color="white"/>
</linearGradient>
</defs>
</svg>
